<?xml version="1.0" encoding="UTF-8"?>
<svg width="163px" height="40px" viewBox="0 0 163 40" version="1.1" xmlns="http://www.w3.org/2000/svg" xmlns:xlink="http://www.w3.org/1999/xlink">
    <!-- Generator: Sketch 52.2 (67145) - http://www.bohemiancoding.com/sketch -->
    <g id="Symbols" stroke="none" stroke-width="1" fill="none" fill-rule="evenodd">
        <g id="Top-Nav-About" transform="translate(-133.000000, -56.000000)" fill-rule="nonzero">
            <g id="SEMI-4c" transform="translate(133.000000, 56.000000)">
                <path d="M43.7511344,18.9730496 C41.7484817,18.6099291 39.3817103,18.5191489 36.7418499,18.6099291 C28.7312391,28.2326241 15.8960558,36.5843972 7.33926702,37.6737589 C5.24558464,37.9460993 3.69808028,37.764539 2.42366492,37.2198582 C3.24293194,37.9460993 4.60837696,38.5815603 6.52,38.9446809 C14.7126702,40.5787234 29.7325654,37.4014184 40.018918,31.8638298 C50.3052705,26.3262411 52.0348342,20.5163121 43.7511344,18.9730496 Z" id="Shape" fill="#000000"></path>
                <path d="M12.1638394,21.9687943 C20.7206283,16.7943262 31.8262478,13.0723404 41.2933333,11.8921986 C45.2986387,4.35744681 43.3870157,-0.453900709 35.9225829,0.544680851 C26.9106457,1.7248227 13.1651658,10.9843972 5.33661431,21.151773 C-0.398254799,28.5957447 -1.39958115,34.4056738 1.87748691,36.6751773 C-0.489284468,33.1347518 3.15190227,27.506383 12.1638394,21.9687943 Z" id="Shape" fill="#55A646"></path>
                <path d="M70.5138569,21.2425532 L65.8713438,19.9716312 C64.5969284,19.6085106 63.9597208,19.0638298 63.9597208,18.3375887 C63.9597208,17.0666667 66.1444328,16.4312057 68.2381152,16.4312057 C70.1497382,16.4312057 71.4241536,17.0666667 72.4254799,17.5205674 C73.0626876,17.7929078 73.6088656,18.0652482 74.1550436,18.0652482 C75.6115183,18.0652482 75.8846073,17.4297872 75.8846073,16.8851064 C75.8846073,16.8851064 75.702548,16.2496454 75.702548,16.2496454 C74.883281,15.1602837 71.3331239,14.2524823 67.6009075,14.2524823 C63.9597208,14.2524823 60.2275044,15.8865248 60.2275044,18.5191489 C60.2275044,20.7886525 62.4122164,21.6964539 64.3238394,22.2411348 L69.6035602,23.693617 C71.1510646,24.1475177 72.6075393,24.6014184 72.6075393,25.8723404 C72.6075393,27.0524823 70.9690052,28.2326241 67.8739965,28.2326241 C65.4161955,28.2326241 63.8686911,27.4156028 62.7763351,26.7801418 C62.0480977,26.4170213 61.5019197,26.0539007 60.9557417,26.0539007 C60.1364747,26.0539007 59.3172077,26.7801418 59.3172077,27.3248227 C59.3172077,28.5957447 62.8673647,30.4113475 67.7829668,30.4113475 C72.9716579,30.4113475 76.4307853,28.5049645 76.4307853,25.7815603 C76.3397557,23.058156 73.4268063,22.0595745 70.5138569,21.2425532 Z" id="Shape" fill="#000000"></path>
                <path d="M93.271274,14.2524823 C86.7171379,14.2524823 83.2580105,18.3375887 83.2580105,22.3319149 C83.2580105,26.0539007 85.9889005,30.4113475 93.817452,30.4113475 C99.1882024,30.4113475 102.920419,28.2326241 102.920419,27.1432624 C102.920419,25.8723404 101.737033,25.8723404 101.281885,25.8723404 C100.735707,25.8723404 100.189529,26.1446809 99.5523211,26.5985816 C98.3689354,27.3248227 96.7304014,28.2326241 93.6353927,28.2326241 C89.8121466,28.2326241 87.3543455,25.8723404 87.0812565,23.5120567 C87.5364049,23.5120567 101.008796,23.5120567 101.008796,23.5120567 C102.5563,23.5120567 103.284538,23.058156 103.284538,22.0595745 C103.193508,18.2468085 100.098499,14.2524823 93.271274,14.2524823 Z M99.4612914,21.2425532 C99.0061431,21.2425532 87.4453752,21.2425532 87.0812565,21.2425532 C87.3543455,18.7914894 89.4480279,16.4312057 93.271274,16.4312057 C97.0034904,16.4312057 99.1882024,18.8822695 99.4612914,21.2425532 Z" id="Shape" fill="#000000"></path>
                <path d="M152.713647,14.2524823 C151.621291,14.2524823 150.984084,14.7971631 150.984084,15.7957447 L150.984084,28.777305 C150.984084,29.7758865 151.621291,30.3205674 152.713647,30.3205674 C153.806003,30.3205674 154.443211,29.7758865 154.443211,28.777305 L154.443211,15.7957447 C154.443211,14.7971631 153.806003,14.2524823 152.713647,14.2524823 Z" id="Shape" fill="#000000"></path>
                <path d="M126.315044,16.8851064 C127.771518,15.341844 130.411379,14.2524823 132.960209,14.2524823 C136.965515,14.2524823 141.334939,16.0680851 141.334939,19.9716312 L141.334939,28.8680851 C141.334939,29.8666667 140.697731,30.4113475 139.605375,30.4113475 C138.513019,30.4113475 137.875812,29.8666667 137.875812,28.8680851 L137.875812,20.4255319 C137.875812,17.8836879 136.237277,16.7035461 132.960209,16.7035461 C130.502408,16.7035461 127.953578,18.0652482 127.953578,20.4255319 L127.953578,28.8680851 C127.953578,29.8666667 127.31637,30.4113475 126.224014,30.4113475 C125.131658,30.4113475 124.49445,29.8666667 124.49445,28.8680851 L124.49445,20.4255319 C124.49445,17.9744681 121.85459,16.612766 119.487818,16.612766 C116.119721,16.612766 114.572216,17.8836879 114.572216,20.4255319 L114.572216,28.8680851 C114.572216,29.8666667 113.935009,30.4113475 112.842653,30.4113475 C111.750297,30.4113475 111.113089,29.8666667 111.113089,28.8680851 L111.113089,19.9716312 C111.113089,16.0680851 115.482513,14.2524823 119.487818,14.2524823 C122.127679,14.2524823 124.67651,15.2510638 126.132984,16.8851064 L126.315044,16.9758865 L126.315044,16.8851064 Z" id="Shape" fill="#000000"></path>
                <path d="M159.358813,14.9787234 L158.903665,14.9787234 C158.812635,14.9787234 158.721606,14.8879433 158.721606,14.7971631 C158.721606,14.706383 158.812635,14.6156028 158.903665,14.6156028 L160.26911,14.6156028 C160.36014,14.6156028 160.451169,14.706383 160.451169,14.7971631 C160.451169,14.8879433 160.36014,14.9787234 160.26911,14.9787234 L159.813962,14.9787234 L159.813962,16.612766 C159.813962,16.7035461 159.722932,16.7943262 159.631902,16.7943262 C159.449843,16.7943262 159.449843,16.7035461 159.449843,16.612766 L159.449843,14.9787234 L159.358813,14.9787234 Z M160.724258,14.9787234 C160.724258,14.706383 160.815288,14.6156028 160.997347,14.6156028 C161.088377,14.6156028 161.270436,14.6156028 161.361466,14.7971631 L161.907644,16.1588652 L162.362792,14.7971631 C162.453822,14.6156028 162.544852,14.6156028 162.726911,14.6156028 C162.90897,14.6156028 163,14.706383 163,14.9787234 L163,16.612766 C163,16.7035461 162.90897,16.7943262 162.817941,16.7943262 C162.726911,16.7943262 162.635881,16.7035461 162.635881,16.612766 L162.635881,15.0695035 L162.089703,16.612766 C162.089703,16.7943262 161.998674,16.7943262 161.907644,16.7943262 C161.816614,16.7943262 161.725585,16.7035461 161.725585,16.612766 L161.179407,15.0695035 L161.179407,16.612766 C161.179407,16.7035461 161.088377,16.7943262 160.997347,16.7943262 C160.906318,16.7943262 160.815288,16.7035461 160.815288,16.612766 L160.815288,14.9787234 L160.724258,14.9787234 Z" id="Shape" fill="#000000"></path>
            </g>
        </g>
    </g>
</svg>
